<svg height="512pt" viewBox="-16 0 512 512" width="512pt" xmlns="http://www.w3.org/2000/svg"><path d="m423.828125 397.203125v-237.890625c0-8.566406-6.464844-15.03125-15.03125-15.03125h-40.078125v15.03125h40.078125c.277344 0 0-.277344 0 0v233.453125h-337.65625v-233.453125c0-.277344.722656 0 1 0h40.078125v-15.03125h-40.078125c-8.5625 0-16.03125 6.464844-16.03125 15.03125v237.890625l-56.109375 72.140625v26.625c0 8.5625 7.46875 16.03125 16.03125 16.03125h448.875c8.566406 0 15.03125-7.46875 15.03125-16.03125v-26.625zm-10.6875 10.59375 44.417969 57.109375h-180.121094l-8.015625 8.015625h-57.902344l-8.015625-8.015625h-180.125l44.421875-57.109375zm51.765625 89.171875h-448.875c-.277344 0-1-.722656-1-1v-16.03125h182.25l8.015625 8.015625h70.347656l8.015625-8.015625h181.246094v16.03125c0 .277344.277344 1 0 1zm0 0"/><path d="m200.390625 328.640625h16.03125v15.03125h-16.03125zm0 0"/><path d="m232.453125 328.640625h16.03125v15.03125h-16.03125zm0 0"/><path d="m264.515625 328.640625h16.03125v15.03125h-16.03125zm0 0"/><path d="m88.171875 176.34375v199.390625h272.53125v-15.03125h-257.5v-169.328125h25.046875v112.21875h223.4375v-112.21875h25.046875v176.34375h15.03125v-191.375h-40.078125v-73.140625h-15.03125v185.359375h-193.375v-273.53125h129.25v72.140625h79.15625v-19.144531l-68.027344-68.027344h-155.410156v176.34375zm199.390625-151.1875 46.984375 46.984375h-46.984375zm0 0"/><path d="m168.328125 40.078125h16.03125v15.03125h-16.03125zm0 0"/><path d="m200.390625 40.078125h16.03125v15.03125h-16.03125zm0 0"/><path d="m232.453125 40.078125h16.03125v15.03125h-16.03125zm0 0"/><path d="m200.390625 104.203125h112.21875v15.03125h-112.21875zm0 0"/><path d="m168.328125 104.203125h16.03125v15.03125h-16.03125zm0 0"/><path d="m200.390625 136.265625h112.21875v15.03125h-112.21875zm0 0"/><path d="m168.328125 136.265625h16.03125v15.03125h-16.03125zm0 0"/><path d="m200.390625 168.328125h112.21875v15.03125h-112.21875zm0 0"/><path d="m168.328125 168.328125h16.03125v15.03125h-16.03125zm0 0"/><path d="m200.390625 72.140625h56.109375v15.03125h-56.109375zm0 0"/><path d="m168.328125 72.140625h16.03125v15.03125h-16.03125zm0 0"/><path d="m215.421875 263.515625v-55.109375h-47.09375v55.109375h15.03125v-16.03125h17.03125v16.03125zm-32.0625-31.0625v-9.015625h17.03125v9.015625zm0 0"/></svg>