<svg height="482pt" viewBox="0 -1 482.42524 482" width="482pt" xmlns="http://www.w3.org/2000/svg"><path d="m208 111.722656c0-4.421875-3.582031-8-8-8h-64c-4.417969 0-8 3.578125-8 8v48c0 4.417969 3.582031 8 8 8h64c4.417969 0 8-3.582031 8-8zm-16 16h-24v-8h24zm-48-8h8v32h-8zm24 32v-8h24v8zm0 0"/><path d="m368 103.722656c-5.625.015625-11.148438 1.519532-16 4.367188-13.445312-7.859375-30.59375-4.894532-40.625 7.015625-10.027344 11.910156-10.027344 29.3125 0 41.222656 10.03125 11.914063 27.179688 14.875 40.625 7.015625 4.851562 2.855469 10.371094 4.363281 16 4.378906 17.671875 0 32-14.328125 32-32 0-17.675781-14.328125-32-32-32zm-32 48c-8.835938 0-16-7.164062-16-16 0-8.839844 7.164062-16 16-16 1.347656-.003906 2.695312.164063 4 .503906-.320312.566407-.558594 1.175782-.800781 1.757813-.160157.335937-.328125.664063-.472657 1.007813-.773437 1.78125-1.378906 3.628906-1.816406 5.519531-.078125.359375-.132812.730469-.207031 1.089843-.425781 2.011719-.664063 4.0625-.703125 6.121094.015625 2.050782.234375 4.09375.648438 6.101563.070312.375.128906.746093.207031 1.113281.429687 1.867188 1.027343 3.6875 1.785156 5.449219.167969.390625.359375.796875.542969 1.148437.265625.5625.496094 1.136719.800781 1.683594-1.300781.335938-2.640625.503906-3.984375.503906zm32 0c-3.980469-.007812-7.8125-1.503906-10.742188-4.195312-3.367187-3.03125-5.277343-7.355469-5.257812-11.882813.019531-4.53125 1.972656-8.835937 5.367188-11.835937 2.914062-2.632813 6.703124-4.089844 10.632812-4.085938 8.835938 0 16 7.160156 16 16 0 8.835938-7.164062 16-16 16zm0 0"/><path d="m208 215.722656h16v16h-16zm0 0"/><path d="m240 215.722656h16v16h-16zm0 0"/><path d="m272 215.722656h16v16h-16zm0 0"/><path d="m304 215.722656h16v16h-16zm0 0"/><path d="m336 215.722656h16v16h-16zm0 0"/><path d="m368 215.722656h16v16h-16zm0 0"/><path d="m208 247.722656h64v16h-64zm0 0"/><path d="m320 247.722656h64v16h-64zm0 0"/><path d="m481.601562 203.488281-49.730468-185.558593c-3.460938-12.769532-16.605469-20.324219-29.382813-16.898438l-263.855469 70.691406h-34.632812c-6.414062.023438-12.550781 2.605469-17.054688 7.167969-4.503906 4.566406-7.003906 10.738281-6.945312 17.148437v44.371094l-52.289062 52.285156c-7.523438 7.484376-11.742188 17.667969-11.710938 28.28125v178.746094h-8c-4.417969 0-8 3.578125-8 8v64c0 4.417969 3.582031 8 8 8h176c4.417969 0 8-3.582031 8-8v-64c0-4.421875-3.582031-8-8-8h-16v-24.800781c18.613281-3.824219 31.980469-20.199219 32-39.199219v-24h224c13.253906 0 24-10.746094 24-24v-50.355468l16.640625-4.476563c6.128906-1.667969 11.347656-5.695313 14.511719-11.203125 3.234375-5.488281 4.117187-12.050781 2.449218-18.199219zm-74.945312-186.96875c4.242188-1.132812 8.605469 1.367188 9.777344 5.601563l13.476562 50.34375c-.140625 0-.308594 0-.460937-.054688-1.785157-.4375-3.613281-.667968-5.449219-.6875h-223.542969zm-230.65625 447.203125h-160v-48h160zm8-128c0 13.253906-10.746094 24-24 24-4.417969 0-8 3.578125-8 8v32h-120v-178.746094c.015625-6.359374 2.539062-12.457031 7.023438-16.96875l40.976562-40.976562v68.691406c0 4.417969 3.582031 8 8 8h20.160156c2.121094-.003906 4.15625-.84375 5.65625-2.34375l34.128906-34.082031 5.597657 5.601563c5.550781 5.609374 8.050781 13.550781 6.714843 21.328124-.890624 4.800782-3.222656 9.222657-6.683593 12.671876l-39.199219 39.199218c-1.503906 1.484375-2.359375 3.507813-2.375 5.625v24c0 13.253906-10.746094 24-24 24v16c22.082031-.027344 39.972656-17.921875 40-40h56zm248-48c0 4.417969-3.582031 8-8 8h-296v-4.691406l36.855469-36.855469c7.53125-7.488281 11.765625-17.671875 11.765625-28.292969 0-10.625-4.234375-20.808593-11.765625-28.296874l-5.597657-5.601563c-6.347656-6.046875-16.328124-6.046875-22.671874 0l-31.738282 31.738281h-8.847656v-128c0-4.421875 3.582031-8 8-8h320c4.417969 0 8 3.578125 8 8zm33.320312-74.050781c-1.050781 1.855469-2.800781 3.210937-4.855468 3.769531l-12.464844 3.359375v-80.800781l18.128906 67.679688c.542969 2.027343.25 4.183593-.808594 5.992187zm0 0"/></svg>